<svg xmlns="http://www.w3.org/2000/svg" width="500" height="3000" viewBox="0 0 500 3000">
  <defs>
    <style>
      .cls-1 {
        fill-rule: evenodd;
      }
    </style>
  </defs>
  <path id="LANGAGES" class="cls-1" d="M105.1,389.109l0.107-175.183,314.709,0.191,0.015-24.8-339.514-.206L80.3,389.094ZM420,592.847l0.021-35.037q-43.707-16.768-85.866-33.073T250.3,492.285q-41.7-16.151-83.851-32.452T80.275,426.759l-0.016,26.355q26.039,9.624,54.713,20.187t54.4,19.567l-0.1,167.122L80.108,701.471,80.09,731.237ZM208.905,499.391l188.78,74.839L208.812,652.87Zm210.5,553.109,0.015-24.8-309.438-.19L419.549,822.129l0.021-34.106-339.515-.207-0.015,24.8L390.1,812.809,79.915,1019.74l-0.02,32.56ZM76.318,1325.6a170.088,170.088,0,0,0,8.816,33.34,142.8,142.8,0,0,0,15.794,30.24,126.535,126.535,0,0,0,24.014,26.06l-45.275,10.83-0.009,14.26,165.261,0.1,0.072-118.44-24.8-.02-0.057,93.64-61.082-.04a153.074,153.074,0,0,1-44.616-52.42q-16.107-31.02-16.079-73.19,0.018-30.075,10.11-55.03a115.817,115.817,0,0,1,29.637-42.77q19.545-17.82,47.921-27.72,28.375-9.915,64.653-9.88,36.582,0.015,64.641,9.96t47.112,27.78a113.894,113.894,0,0,1,28.655,42.65q9.591,24.81,9.579,54.57a157.746,157.746,0,0,1-5.919,44.34,132.188,132.188,0,0,1-15.834,35.34,91.446,91.446,0,0,1-23.114,24.63,66.5,66.5,0,0,1-28.068,11.92l-0.016,26.67a109.617,109.617,0,0,0,40.008-17.03,118.773,118.773,0,0,0,30.87-31.3,149.865,149.865,0,0,0,19.87-43.08,187.308,187.308,0,0,0,7.008-52.09q0.021-35.655-12.208-65.12a143.957,143.957,0,0,0-35.006-50.72q-22.776-21.255-55.015-33.05t-72.547-11.83q-40-.015-72.716,11.59t-55.83,32.98a147.769,147.769,0,0,0-35.843,51.3q-12.728,29.91-12.753,66.19A222.418,222.418,0,0,0,76.318,1325.6Zm343.034,330.88,0.022-35.03q-43.709-16.77-85.867-33.08-42.161-16.29-83.851-32.45-41.7-16.14-83.851-32.45T79.629,1490.4l-0.016,26.35q26.039,9.63,54.713,20.19t54.4,19.57l-0.1,167.12L79.462,1765.11l-0.018,29.76Zm-211.093-93.45,188.78,74.84-188.873,78.64ZM75.888,2035.01a170.177,170.177,0,0,0,8.816,33.33,142.767,142.767,0,0,0,15.8,30.24,126.5,126.5,0,0,0,24.013,26.06l-45.275,10.83-0.009,14.26,165.261,0.1,0.072-118.44-24.805-.02-0.057,93.64-61.081-.04A153.066,153.066,0,0,1,114,2072.55q-16.107-31.02-16.079-73.19,0.018-30.075,10.111-55.03a115.908,115.908,0,0,1,29.636-42.77q19.545-17.82,47.921-27.72t64.653-9.88q36.582,0.015,64.642,9.96T362,1901.7a113.892,113.892,0,0,1,28.654,42.65q9.593,24.81,9.579,54.58a157.762,157.762,0,0,1-5.918,44.33,132.189,132.189,0,0,1-15.835,35.34,91.446,91.446,0,0,1-23.114,24.63,66.5,66.5,0,0,1-28.068,11.92l-0.016,26.67a109.6,109.6,0,0,0,40.008-17.03,118.773,118.773,0,0,0,30.87-31.3,149.838,149.838,0,0,0,19.87-43.08,187.233,187.233,0,0,0,7.008-52.09q0.021-35.655-12.208-65.12a143.905,143.905,0,0,0-35.006-50.71q-22.776-21.255-55.015-33.06T250.26,1837.6q-40-.015-72.715,11.59t-55.831,32.99a147.637,147.637,0,0,0-35.843,51.29q-12.728,29.91-12.753,66.19A222.544,222.544,0,0,0,75.888,2035.01Zm27.944,446.34,0.134-220.46,139.526,0.09-0.121,198.75,24.8,0.01,0.121-198.75,125.574,0.08-0.129,212.08,24.8,0.02,0.144-236.89-339.514-.2-0.149,245.25ZM79.957,2737.12q7.268,22.485,20.44,38.77a95.015,95.015,0,0,0,31.3,25.45,87.292,87.292,0,0,0,39.837,9.17q18.909,0.015,32.715-6.03a75.344,75.344,0,0,0,23.729-16.11,92.269,92.269,0,0,0,16.758-23.71,188.978,188.978,0,0,0,11.489-28.67q4.661-15.045,8.08-30.85t6.53-30.69q5.284-25.425,11.343-42.47t13.97-27.43q7.912-10.38,17.837-14.72t23.257-4.32q29.141,0.015,45.874,23.43t16.7,69q-0.014,21.7-4.83,38.6a97.34,97.34,0,0,1-13.35,29.14,74.906,74.906,0,0,1-20.321,19.99,82.6,82.6,0,0,1-25.432,11.14l-0.014,23.88a92.428,92.428,0,0,0,65.136-39.19,122.208,122.208,0,0,0,17.541-37.97,177.581,177.581,0,0,0,6.076-47.74q0.015-26.055-6.483-47.6t-18.271-36.91a82.6,82.6,0,0,0-28.2-23.74,78.884,78.884,0,0,0-36.271-8.39q-18.3-.015-32.1,6.18a67.422,67.422,0,0,0-24.507,19.21q-10.7,13.02-18.778,33.01t-14.292,47.9q-7.157,33.78-13.987,56.57t-15.525,36.74q-8.693,13.935-20.321,19.83t-28.684,5.87a60.986,60.986,0,0,1-28.986-6.84,63.21,63.21,0,0,1-22-19.7q-9.141-12.87-13.933-31.01t-4.782-40.78a215.308,215.308,0,0,1,3.746-40.93,105,105,0,0,1,12.733-34.25,79.28,79.28,0,0,1,24.2-25.25q15.195-10.23,38.146-13.93l0.015-24.5q-23.881,1.53-42.95,10.83a91.061,91.061,0,0,0-32.572,26.8q-13.5,17.505-20.8,43.24T72.7,2688.29A157.647,157.647,0,0,0,79.957,2737.12Z"/>
</svg>
