<svg xmlns="http://www.w3.org/2000/svg" width="500" height="3000" viewBox="0 0 500 3000">
  <defs>
    <style>
      .cls-1 {
        fill-rule: evenodd;
      }
    </style>
  </defs>
  <path id="LOGICIELS" class="cls-1" d="M105.072,439.419l0.106-175.183,314.709,0.191,0.015-24.805-339.514-.206L80.267,439.4Zm308.415,153.04a147.664,147.664,0,0,0-35.161-50.716q-22.776-21.408-55.015-33.365T251.075,496.4q-39.693-.024-72.251,11.738t-55.831,32.988a148.01,148.01,0,0,0-36.152,50.672Q73.96,621.24,73.934,656.59t12.828,64.655a147.46,147.46,0,0,0,36.246,50.561q23.394,21.249,55.946,33.055t71.926,11.826q39.685,0.024,71.941-11.893t55.211-33.143a144.825,144.825,0,0,0,35.377-50.673q12.415-29.452,12.441-64.175Q425.873,621.762,413.487,592.459ZM108.848,602.506a116.392,116.392,0,0,1,29.637-42.46q19.543-17.822,47.921-27.722t64.653-9.882q36.276,0.021,64.176,10.116t46.957,28.088A118.92,118.92,0,0,1,391.156,603.3q9.9,24.656,9.889,54.111-0.017,28.836-9.8,53.169a116.379,116.379,0,0,1-28.861,42.151q-19.078,17.814-46.991,27.877t-64.5,10.037q-36.277-.021-64.641-9.961t-47.887-27.934A117.862,117.862,0,0,1,108.783,710.1Q98.718,685.44,98.739,656.3T108.848,602.506ZM76.47,1075.32a170.467,170.467,0,0,0,8.816,33.34,143.274,143.274,0,0,0,15.794,30.24,126.791,126.791,0,0,0,24.014,26.06L79.82,1175.78l-0.009,14.26,165.261,0.1,0.072-118.44-24.8-.01-0.057,93.63-61.082-.03a153.2,153.2,0,0,1-44.616-52.43q-16.107-31.02-16.079-73.18,0.018-30.09,10.11-55.033a115.8,115.8,0,0,1,29.637-42.77q19.545-17.822,47.921-27.722t64.653-9.882q36.582,0.022,64.641,9.961t47.112,27.779a113.89,113.89,0,0,1,28.655,42.65q9.591,24.806,9.578,54.577a157.639,157.639,0,0,1-5.918,44.33,132.045,132.045,0,0,1-15.834,35.34,91.639,91.639,0,0,1-23.114,24.64,66.63,66.63,0,0,1-28.068,11.92l-0.016,26.66a109.617,109.617,0,0,0,40.008-17.03,118.732,118.732,0,0,0,30.87-31.29,150.05,150.05,0,0,0,19.87-43.09,187.256,187.256,0,0,0,7.008-52.09q0.021-35.655-12.208-65.115A143.933,143.933,0,0,0,378.405,922.8q-22.776-21.256-55.015-33.055t-72.547-11.826q-40-.024-72.716,11.583T122.3,922.488a147.723,147.723,0,0,0-35.843,51.293q-12.728,29.91-12.753,66.189A222.451,222.451,0,0,0,76.47,1075.32Zm342.782,236.31,0.015-24.8-339.514-.21-0.015,24.8Zm-91.077,377.13a111.592,111.592,0,0,0,39.233-16.72,123.575,123.575,0,0,0,30.714-29.75,140.274,140.274,0,0,0,20.023-39.83,151.536,151.536,0,0,0,7.16-46.66q0.021-35.655-12.209-64.35a136.668,136.668,0,0,0-35.007-49.01q-22.776-20.325-55.016-31.19t-72.547-10.9q-40.623-.015-73.336,10.81t-55.674,30.97a137.5,137.5,0,0,0-35.531,48.82q-12.575,28.665-12.6,64.64a169.181,169.181,0,0,0,6.792,48.99A127.2,127.2,0,0,0,100,1644.59a111.451,111.451,0,0,0,32.074,28.85,117.614,117.614,0,0,0,43.244,15.22l0.015-25.73q-37.827-6.855-57.494-35.38-19.677-28.545-19.645-72.57,0.018-29.145,9.954-52.86a109.741,109.741,0,0,1,29.17-40.6q19.231-16.89,47.61-26.01t65.583-9.11q37.207,0.015,65.262,9.19,28.052,9.15,46.8,26.07a108.538,108.538,0,0,1,28.345,40.94q9.592,24.03,9.58,53.49A131.681,131.681,0,0,1,394.9,1595a114.031,114.031,0,0,1-15.367,32.09,94.641,94.641,0,0,1-22.959,23.24,78.884,78.884,0,0,1-28.378,12.69Zm90.776,117.4,0.015-24.8-339.514-.21-0.015,24.81ZM104.029,2156.49l0.134-220.46,139.526,0.09-0.12,198.75,24.8,0.01,0.121-198.75,125.574,0.08-0.129,212.08,24.805,0.02,0.143-236.89-339.514-.21-0.149,245.26Zm-0.172,283.23,0.107-175.19,314.709,0.2,0.015-24.81-339.514-.2L79.053,2439.7ZM79.988,2686.81q7.268,22.485,20.44,38.77a95.015,95.015,0,0,0,31.3,25.45,87.285,87.285,0,0,0,39.836,9.17q18.909,0.015,32.715-6.03a75.337,75.337,0,0,0,23.73-16.11,92.242,92.242,0,0,0,16.757-23.71,188.981,188.981,0,0,0,11.49-28.67q4.659-15.045,8.08-30.85t6.53-30.69q5.284-25.425,11.343-42.47t13.969-27.43q7.913-10.38,17.837-14.72t23.257-4.32q29.142,0.015,45.875,23.43t16.7,69q-0.014,21.7-4.829,38.6a97.365,97.365,0,0,1-13.35,29.14,74.906,74.906,0,0,1-20.321,19.99,82.612,82.612,0,0,1-25.432,11.14l-0.014,23.88a92.433,92.433,0,0,0,65.136-39.19,122.253,122.253,0,0,0,17.541-37.97,177.542,177.542,0,0,0,6.075-47.74q0.017-26.055-6.482-47.6T399.9,2540.97a82.607,82.607,0,0,0-28.2-23.74,78.886,78.886,0,0,0-36.272-8.39q-18.3-.015-32.095,6.18a67.428,67.428,0,0,0-24.506,19.21q-10.706,13.02-18.779,33.01t-14.291,47.9q-7.158,33.78-13.987,56.57t-15.526,36.74q-8.693,13.935-20.321,19.83-11.63,5.88-28.684,5.87a60.986,60.986,0,0,1-28.986-6.84,63.207,63.207,0,0,1-22-19.7q-9.141-12.87-13.934-31.01t-4.781-40.78a215.275,215.275,0,0,1,3.746-40.93,105,105,0,0,1,12.733-34.25,79.269,79.269,0,0,1,24.2-25.25q15.193-10.23,38.145-13.93l0.015-24.5q-23.88,1.53-42.95,10.83a91.07,91.07,0,0,0-32.572,26.8q-13.5,17.505-20.8,43.24t-7.323,60.15A157.644,157.644,0,0,0,79.988,2686.81Z"/>
</svg>
